<svg xmlns="http://www.w3.org/2000/svg" viewBox="0 0 32 32" width="32" height="32">
  <defs>
    <linearGradient id="bgg" x1="0%" y1="0%" x2="0%" y2="100%">
      <stop offset="0%" stop-color="#E0F2F1"/>
      <stop offset="100%" stop-color="#FFFFFF"/>
    </linearGradient>
  </defs>
  <rect width="32" height="32" fill="url(#bgg)"/>
  <!-- 阳 -->
  <path fill="#FFFFFF" filter="drop-shadow(0 .3px 0 #bbb)" d="M2 3h5v1h-1v1h-1v-1h-1v1h-2v-1h2v-1h-1v-1h-1v1h-1v-1h1zM5 4h2v1h-1zM3 5h1v1h-1zM6 5h1v1h-1zM2 6h1v1h-1zM4 6h1v2h1v-2h1v-1zM2 7h1v1h-1zM4 7h1v1h-1zM6 7h1v1h-1zM3 8h3v1h-3zM2 9h3v1h-3zM6 9h1v1h-1zM2 10h2v1h-2zM5 10h2v1h-2zM2 11h5v1h-5z"/>
  <!-- 明 -->
  <path fill="#FFFFFF" filter="drop-shadow(0 .3px 0 #bbb)" d="M18 3h1v1h-1zM20 3h1v1h-1zM19 4h1v1h-1zM17 5h1v1h-1zM21 5h1v1h-1zM18 6h1v1h-1zM20 6h1v1h-1zM17 7h3v1h-3zM18 8h2v1h-2zM21 8h1v1h-1zM17 9h1v1h-1zM19 9h1v1h-1zM21 9h1v1h-1zM18 10h1v1h-1zM20 10h1v1h-1zM17 11h4v1h-4z"/>
  <!-- 老 -->
  <path fill="#FFFFFF" filter="drop-shadow(0 .3px 0 #bbb)" d="M3 15h3v1h-3zM2 16h1v1h-1zM6 16h1v1h-1zM3 17h1v1h-1zM5 17h1v1h-1zM2 18h1v1h-1zM4 18h1v1h-1zM7 18h1v1h-1zM3 19h2v1h-2zM6 19h2v1h-2zM2 20h1v1h-1zM4 20h1v1h-1zM7 20h1v1h-1zM2 21h1v1h-1zM5 21h1v1h-1zM3 22h1v1h-1zM7 22h1v1h-1zM2 23h2v1h-2zM6 23h2v1h-2zM3 24h1v1h-1zM5 24h1v1h-1zM8 24h1v1h-1zM2 25h1v1h-1zM4 25h1v1h-1z"/>
  <!-- 君 -->
  <path fill="#FFFFFF" filter="drop-shadow(0 .3px 0 #bbb)" d="M19 15h2v1h-2zM22 15h1v1h-1zM18 16h1v1h-1zM20 16h1v1h-1zM23 16h1v1h-1zM19 17h2v1h-2zM21 17h3v1h-3zM18 18h4v1h-4zM17 19h2v1h-2zM20 19h1v1h-1zM23 19h1v1h-1zM19 20h2v1h-2zM22 20h2v1h-2zM17 21h1v1h-1zM22 21h3v1h-3zM18 22h1v1h-1zM20 22h1v1h-1zM23 22h1v1h-1zM19 23h2v1h-2zM21 23h1v1h-1zM17 24h3v1h-3zM21 24h2v1h-2zM18 25h1v1h-1zM20 25h2v1h-2zM22 25h1v1h-1zM19 26h1v1h-1z"/>
</svg>